<svg viewBox="0 0 72 72" xmlns="http://www.w3.org/2000/svg"><path d="m36.2002 13.3163c-12.5719 0-22.7998 10.2279-22.7998 22.7998 0 12.5718 10.2279 22.7998 22.7998 22.7998 12.5718 0 22.7998-10.228 22.7998-22.7998 0-12.5719-10.228-22.7998-22.7998-22.7998z" fill="#fcea2b"/><circle cx="36" cy="36" fill="none" r="23" stroke="#000" stroke-miterlimit="10" stroke-width="2"/><path d="m44.7 43.92c-6.328-1.736-11.41-.906-17.4 1.902" fill="none" stroke="#000" stroke-linecap="round" stroke-linejoin="round" stroke-width="2"/><path d="m30 31c0 1.6568-1.3448 3-3 3-1.6553 0-3-1.3433-3-3 0-1.6552 1.3447-3 3-3 1.6552 0 3 1.3448 3 3"/><path d="m48 31c0 1.6568-1.3447 3-3 3s-3-1.3433-3-3c0-1.6552 1.3447-3 3-3s3 1.3448 3 3"/></svg>